<?xml version="1.0" encoding="utf-8"?>
<!-- Generator: Adobe Illustrator 23.0.3, SVG Export Plug-In . SVG Version: 6.00 Build 0)  -->
<svg version="1.1" id="Capa_1" xmlns="http://www.w3.org/2000/svg" xmlns:xlink="http://www.w3.org/1999/xlink" x="0px" y="0px"
	 viewBox="0 0 1200 1200" enable-background="new 0 0 1200 1200" xml:space="preserve">
<g>
	<path d="M1100.035,425.586c0.202,12.26-5.624,22.18-13.879,30.188c11.202,17.231,9.043,37.633-9.74,50.905
		c-15.296,10.797-36.869,14.397-54.729,8.031c-4.274,17.073-18.671,26.341-39.298,21.91c-6.208-1.35-12.597-3.599-18.783-6.591
		c1.912,25.509-3.982,55.314-27.308,67.281c-35.631,18.266-71.195-4.072-106.399-12.08c-9.65,12.687-22.45,21.685-39.096,23.192
		c-24.227,2.182-44.112-13.812-62.557-27.173c-18.198-13.204-38.533-28.388-61.005-20.628c-0.202,11.765-3.824,22.675-13.519,28.861
		c0.27,6.636,0.247,12.44,5.061,18.221c4.769,5.759,11,10.235,15.881,15.926c11.067,12.867,13.339,26.679,11.877,42.042
		c11.675,7.311,21.82,17.118,25.396,30.953c3.712,14.284-0.967,28.546-10.348,39.523c-10.887,12.777-27.038,21.37-42.987,25.959
		c-16.331,4.701-35.901,4.004-50.523,13.384c-6.838,4.386-22.989,17.928-16.601,27.398c4.836,7.198,13.587,3.847,20.403,2.857
		c8.683-1.282,15.994,0.112,24.047,3.577c7.558,3.262,12.957,4.881,21.37,4.252c6.883-0.517,13.744-1.305,20.628-0.54
		c7.558,0.832,14.059,3.599,19.098,8.008c1.665-4.049,4.296-7.873,7.288-11.562c3.217-3.982,9.043-3.464,13.137-1.71
		c28.816,12.484,31.897,45.079,28.838,72.59c-1.597,14.329-4.679,28.501-5.556,42.92c-0.427,7.311-1.507,19.12,7.221,22.022
		c0.225,0.068,0.427,0.18,0.652,0.27c94.387,0.517,188.752,1.957,282.959,7.401c3.239,0.18,5.691,1.575,7.333,3.532
		c0.585,0.382,1.17,0.81,1.755,1.327c37.049,33.629-5.241,95.692-33.944,120.256c-23.034,19.705-50.725,29.31-79.946,34.259
		c-3.329,11.067-2.384,22.18-13.767,30.008c-9.493,6.523-22.315,8.458-33.629,7.356c-11.157-1.102-19.66-6.501-26.499-15.229
		c-3.329-4.252-6.613-11.27-10.91-16.106c-7.671,0.247-15.229,0.517-22.63,0.922c-125.812,6.793-254.886,17.276-379.304-8.053
		c2.204,21.685-19.233,31.695-39.321,27.646c-10.235-2.07-18.985-7.806-23.709-17.298c-4.521-9.065-4.364-18.985-9.853-27.623
		c-0.27-0.427-0.472-0.877-0.63-1.35c-28.613-8.885-56.529-20.223-81.25-36.464c-18.266-11.967-36.441-27.871-45.237-48.318
		c-7.963-18.558-7.761-45.664,11.99-56.754c16.938-9.515,40.355-7.851,59.071-7.513c27.578,0.517,55.067,0.517,82.645,1.507
		c27.083,0.99,54.234,1.192,81.385,1.08c0.562-0.36,1.192-0.697,1.912-0.9c1.62-0.495,3.284-1.395,4.161-1.552
		c-0.09-0.472-0.225-0.99-0.45-1.327c-2.654-4.184-5.174-8.66-7.446-13.092c-4.521-8.818-7.783-19.705,0.225-27.713
		c5.781-5.804,14.262-7.648,22.899-8.008c-6.681-5.736-12.282-13.474-15.679-19.683c-6.658-12.08-5.106-23.574,3.059-31.088
		c-15.206-20.875-19.953-49.533-14.711-75.064c-20.942-1.417-36.104-17.613-38.556-39.68c-2.564-23.079,5.399-40.76,26.701-50.568
		c4.364-2.002,9.605-3.509,9.2-9.02c-0.292-4.094-1.35-4.544-4.319-4.341c-7.041,0.45-15.566,10.482-20.178,15.026
		c-5.174,5.061-9.65,10.977-15.026,15.791c-8.503,7.603-20.11,10.213-30.66,13.744c-8.818,2.969-18.693,5.286-26.679-0.855
		c-6.456-4.971-9.628-14.082-13.182-21.55c-6.771,4.319-14.936,5.444-22.36,1.215c-6.726-3.824-10.887-10.64-15.319-16.983
		c-8.998,20.133-30.908,34.709-52.93,26.544c-7.581-2.812-19.008-8.435-25.869-15.746c-19.773,12.237-44.112,18.918-66.696,12.552
		c-17.478-4.949-31.02-22.989-28.478-39.905c-12.799-1.035-25.284-4.431-34.349-14.284c-10.1-10.977-14.194-28.051-6.231-41.3
		c8.818-14.667,27.848-18.446,43.437-20.695c18.086-2.587,36.464-1.98,54.189,2.137c6.096-12.777,17.906-22.09,31.875-25.869
		c18.131-4.949,36.149,0.472,53.02,7.446c6.546-15.364,21.055-26.476,38.871-26.994c21.775-0.652,39.725,15.364,50.433,33.247
		c22.36-3.284,44.022,20.223,38.286,42.852c-3.937,15.499-17.478,24.812-31.717,25.509c2.947,4.994,5.669,10.28,9.538,14.464
		c4.431,4.791,6.366,4.072,11.18-0.292c9.335-8.458,15.431-20.38,24.474-29.288c7.243-7.153,16.983-15.161,27.848-14.172
		c8.098,0.72,13.294,5.871,16.781,12.35c11.855-7.491,26.566-11.112,37.611-0.023c11.27,11.292,10.01,29.85,1.125,42.132
		c3.667,8.143,3.779,16.871,2.227,26.026c-1.192,7.041-4.004,14.576-4.027,21.82c2.114-1.147,4.274-2.204,6.523-3.082
		c16.781-6.681,32.977-2.744,47.036,6.568c6.861-6.658,12.102-14.981,19.705-20.942c7.581-5.916,16.691-11.292,26.071-14.824
		c-2.834-3.014-5.241-6.456-7.108-9.808c-4.746-8.48-6.299-17.568-3.059-26.229c-9.2-5.916-16.758-15.836-20.718-24.654
		c-5.646-12.597-5.736-25.419-0.18-36.959c-0.787-0.832-1.552-1.71-2.272-2.587c-4.701-5.714-9.988-15.431-12.687-25.441
		c-11.405,8.008-23.912,14.621-36.576,18.648c-9.47,3.037-20.807,4.454-29.58-1.26c-6.051-3.959-8.998-10.168-10.235-16.871
		c-15.364,4.859-32.73,6.096-47.374,0.202c-17.793-7.153-20.65-22.697-16.556-38.083c-13.069,1.102-26.094,2.474-39.186,0.27
		c-13.407-2.272-28.951-10.46-32.257-24.901c-4.679-20.335,19.458-29.58,38.938-33.292c-3.014-2.159-6.343-4.229-7.806-6.298
		c-4.431-6.186-5.106-14.082-2.564-21.167c2.339-6.523,7.018-11.495,12.754-15.116c-2.834-1.462-5.579-3.082-8.121-5.084
		c-8.795-7.018-14.824-17.996-17.321-28.906c-3.824-16.848,5.646-23.732,17.793-27.713c-9.38-10.482-11.945-24.339,1.62-36.846
		c7.468-6.883,17.186-9.538,26.904-6.343c4.836,1.597,9.02,4.589,13.294,7.311c1.44-10.28,6.546-19.57,18.086-21.932
		c12.462-2.564,21.55,5.376,26.746,15.521c16.444-12.799,38.916-23.079,57.451-12.44c13.632,7.806,12.664,20.178,7.491,32.145
		c11.607-3.644,23.327-3.194,30.975,9.02c6.906,11.067,3.217,24.654-3.554,35.924c4.926,0.765,10.01,1.89,14.891,3.464
		c4.049-14.689,18.76-25.891,33.112-31.2c10.01-3.712,22.36-4.814,31.357-10.797c2.834-1.89,4.679-4.409,5.849-7.266
		c-10.932,0.247-22.315-3.217-29.693-11.585c-2.857-3.239-5.511-7.873-7.243-12.889c-10.64,5.309-24.587,5.016-35.519,1.215
		c-14.082-4.904-17.906-16.174-18.94-28.883c-18.985,3.262-40.333,1.575-54.977-11.427c-14.756-13.114-11.405-29.243-3.532-43.954
		c-14.037-6.748-17.118-29.693-13.767-45.034c5.511-25.171,25.374-37.633,47.553-31.942c2.857-21.325,13.384-37.813,31.987-51.49
		c9.335-6.861,20.2-12.327,32.055-10.752c7.513,1.012,13.992,4.544,19.773,9.11c12.35-31.537,63.142-48.386,78.731-16.264
		c11.585-9.673,23.619-19.48,38.376-22.854c14.959-3.442,29.895,0,41.503,9.83c12.934,10.932,30.323,34.484,25.981,52.48
		c20.065,1.62,39.748,5.106,55.854,18.536c10.303,8.615,16.893,20.358,13.654,30.953c21.617,6.186,42.875,16.691,52.772,37.858
		c5.264,11.247,6.388,24.047,0.697,32.302c15.049,11.45,23.664,30.75,16.061,49.758c-9.403,23.597-38.713,36.104-62.827,33.157
		c-5.759-0.697-11.427-2.159-16.534-4.949c-4.072-2.227-10.797-10.685-15.341-11.247c-3.644-0.45-7.648,6.388-10.46,9.38
		c-4.027,4.251-8.435,8.256-13.902,10.46c-25.149,10.078-44.247-3.172-61.973-18.558c-14.846,12.439-35.789,19.93-53.785,11.855
		c-0.765,3.149-1.485,6.298-2.047,9.47c-1.305,7.491-3.194,15.116,2.384,21.032c5.624,5.984,13.069,9.965,18.513,16.196
		c4.881,5.579,8.615,12.057,11.585,18.828c11.495,26.161,10.685,63.615-16.781,76.257c1.957,3.059,3.464,6.591,4.386,10.685
		c6.681,29.603-19.795,34.957-43.415,34.012c2.317,4.161,3.982,8.458,4.049,12.844c25.486,0.27,49.758,19.57,72.658,27.916
		c14.194,5.196,35.361,11.18,47.778-0.63c11.157-10.595,7.873-29.58,18.446-39.973c-2.947-2.474-5.646-5.421-7.896-8.885
		c-4.791-7.311-6.276-14.487-5.354-21.122c-22.202-4.386-45.012-23.934-46.316-44.719c-1.732-27.488,25.711-49.173,51.4-46.024
		c7.018-24.812,31.155-39.455,57.789-39.208c19.03,0.18,46.204,4.544,58.373,21.145c15.094-10.662,32.662-14.374,50.253-3.509
		c11.427,7.063,23.102,17.028,29.693,29.243c21.19-15.094,50.185-13.384,71.083,4.139
		C1092.094,399.402,1099.81,411.887,1100.035,425.586z M1069.195,446.753c17.411-12.619,14.756-31.942-1.687-44.067
		c-17.996-13.249-40.13-10.37-54.257,6.591c-5.669,6.838-14.846,0.45-15.679-6.478c-1.327-11.292-14.891-22.18-23.552-28.073
		c-14.981-10.19-28.118-4.859-40.063,7.513c-4.746,4.904-13.744,2.632-15.409-4.072c-4.094-16.691-29.805-19.323-43.909-19.773
		c-20.897-0.675-42.132,9.313-42.515,32.775c-0.112,7.761-8.076,11.652-14.644,8.413c-15.139-7.423-38.916,10.168-33.899,27.128
		c3.667,12.327,23.102,25.036,36.891,23.642c4.701-4.296,10.572-7.738,17.028-10.033c8.143-2.879,13.789,10.595,5.894,13.969
		c-1.192,0.495-13.249,4.994-16.826,11.45c-3.532,6.411,1.395,14.801,3.307,17.163c9.245,11.562,24.362,11.607,35.901,3.802
		c3.937-2.654,9.448-0.675,11.765,3.082c10.393,16.803,41.368,29.085,49.376,3.914c2.272-7.153,11.45-8.143,15.521-2.025
		c8.008,12.035,23.957,20.673,37.273,25.284c5.376,1.867,13.564,4.634,19.233,2.047c6.748-3.059,6.186-12.462,5.916-18.603
		c-0.292-6.343,8.12-11.945,13.609-7.806c21.842,16.466,76.189-2.497,48.903-31.65
		C1063.076,456.381,1064.426,450.217,1069.195,446.753z M1022.586,1022.277c3.802-6.771,7.851-15.094,9.65-23.439
		c-13.497,5.354-32.122,5.601-42.65,6.321c-31.042,2.137-61.523,1.755-92.633,1.62c-11.405-0.045-11.382-17.793,0-17.703
		c28.478,0.247,56.349,0.742,84.782-0.832c16.893-0.945,34.192-1.215,49.263-8.84c-0.99-2.182-2.362-4.252-4.161-6.209
		c-70.7-2.857-141.131-5.016-211.921-5.511c-72.703-0.495-145.405-1.53-218.107-1.8c-11.45-0.045-144.01,0.585-194.398-0.697
		c-27.106-0.697-54.302-1.17-81.385-2.182c-18.131-0.675-39.815-3.779-57.159,3.037c-3.577,1.395-6.141,3.419-7.873,5.871
		c2.272,1.035,4.027,3.127,4.274,6.051c0,0.023,0,0.023,0.023,0.023c0.022,0,1.935,1.215,2.114,1.282
		c4.656,2.047,10.055,3.104,15.004,4.139c14.217,2.924,28.861,3.802,43.325,4.521c58.328,2.924,117.017,0.292,175.368-0.607
		c61.725-0.967,123.428-4.072,185.175-3.532c29.288,0.27,58.553,1.462,87.819,1.845c27.623,0.337,54.954,0.765,81.97,6.838
		c12.282,2.767,6.928,20.83-5.129,18.625c-33.224-6.006-67.259-3.194-100.798-3.667c-35.271-0.517-70.453-2.024-105.769-1.755
		c-84.67,0.652-169.339,3.622-254.031,3.532c-32.572-0.045-65.482-0.63-97.784-5.151c-7.491-1.057-21.752-2.924-31.785-8.143
		c3.307,8.998,8.93,17.681,13.272,22.585c14.127,16.039,32.82,27.376,51.94,36.464c42.807,20.358,91.53,32.797,137.959,41.143
		c121.381,21.842,244.719,8.48,366.662-0.157c51.872-3.667,113.598,1.844,158.474-29.355
		C1000.204,1055.366,1013.048,1039.305,1022.586,1022.277z M922.868,582.373c25.666-9.56,20.605-40.423,23.642-62.782
		c-3.464-2.632-6.703-5.444-9.673-8.435c-3.374,4.476-7.468,7.761-12.012,9.965c1.192,8.413,3.757,16.803,2.542,25.306
		c-1.597,11.225-9.38,18.648-19.413,23.214c-9.92,4.544-20.088,4.949-30.165,0.675c-10.28-4.364-17.793-10.685-29.288-11.652
		c-1.485-0.135-2.744-0.517-3.824-1.057c-1.687,4.476-3.599,8.863-5.714,13.047C867.126,574.612,894.232,593.058,922.868,582.373z
		 M912.948,289.921c20.043-14.824,13.227-41.345-9.808-48.341c-9.403-2.857-7.446-16.736,2.317-16.983
		c12.08-0.315,2.182-18.041-1.845-23.439c-11.405-15.161-32.167-20.628-49.713-24.564c-7.693-1.732-7.716-11.787-2.047-15.701
		c9.358-6.433-9.313-18.85-14.891-21.887c-15.499-8.503-34.552-8.345-51.738-9.358c-8.3-0.495-11.765-11.36-4.296-15.904
		c14.149-8.593-11.765-36.239-19.345-41.772c-22.989-16.736-47.891,9.403-64.829,22.63c-4.364,3.419-12.979,3.284-14.104-3.734
		c-2.632-16.241-13.542-21.595-28.546-15.184c-12.484,5.331-24.654,17.411-23.552,31.807c0.54,7.221-9.583,11.067-14.284,5.916
		c-5.984-6.523-13.407-15.139-22.922-15.724c-9.2-0.585-18.108,6.703-24.654,12.237c-14.554,12.305-20.223,26.499-20.358,45.327
		c-0.045,6.433-6.951,10.1-12.44,7.153c-16.803-8.998-29.985-2.092-34.507,15.926c-1.687,6.748-3.869,30.705,8.885,27.691
		c6.388-1.485,13.362,5.736,9.11,11.855c-8.885,12.867-19.233,28.276-1.327,38.578c12.957,7.468,30.728,6.051,44.629,2.407
		c4.904-1.282,9.808,2.407,9.853,7.491c0.045,9.47-1.26,19.885,8.885,24.047c8.368,3.442,20.583,3.644,28.703-1.417
		c0.427-2.519,1.26-4.881,2.722-6.928c2.587-3.689,9.65-5.219,11.855,0c3.104,7.266,1.012,15.521,7.176,21.595
		c4.971,4.926,11.675,5.714,18.333,5.151c-0.045-0.652-0.09-1.305-0.135-1.935c-0.877-11.495-3.059-22.899-13.564-29.378
		c-10.393-6.411-23.799-8.345-35.002-13.272c-22.247-9.785-39.635-28.231-36.621-53.987c0.877-7.378,12.597-10.595,14.172-1.912
		c2.429,13.294,6.636,25.036,18.131,33.022c9.943,6.928,21.64,10.1,32.955,13.969c4.521,1.53,8.48,3.352,12.012,5.444
		c0.877-4.679-0.72-12.642-0.855-15.926c-0.36-8.908-2.362-36.801,13.362-34.709c2.789,0.36,4.904,1.912,5.601,4.251
		c1.215,1.215,1.89,2.969,1.372,4.994c-2.699,10.505-4.049,22.675-0.405,33.112c2.767,7.896,11.202,17.388,19.143,9.875
		c12.125-11.472,12.529-37.566,29.85-43.482c5.331-1.8,9.808,3.757,8.66,8.683c-0.585,2.519-1.732,4.971-3.059,7.356
		c-0.202,0.945-0.63,1.867-1.35,2.654c-0.18,0.202-0.382,0.45-0.585,0.675c-1.215,2.025-2.452,4.004-3.487,6.006
		c-2.407,4.701-4.656,9.493-7.221,14.127c0.023,1.057,0.225,2.069,0.675,2.992c3.464,7.288,13.474,2.384,17.568-1.237
		c6.366-5.579,10.775-13.519,14.711-20.897c3.464-6.456,5.444-13.654,12.012-17.478c3.374-1.98,9.38-0.405,9.988,4.049
		c1.597,11.72-8.031,25.509-14.644,34.844c-7.063,9.965-16.669,19.885-29.535,20.965c-1.08,0.09-2.159,0.09-3.239,0.045
		c0.09,4.611-0.405,9.133-1.237,13.654c14.576,9.268,32.73-1.102,43.145-12.125c3.419-3.599,8.975-3.104,12.439,0
		c14.037,12.552,35.092,33.764,54.572,16.758c5.534-4.859,9.448-12.642,16.151-16.084c7.288-3.734,15.184-1.237,21.482,3.127
		c9.088,6.321,15.049,12.17,26.791,12.26C894.164,299.324,904.782,295.949,912.948,289.921z M912.16,524.539
		c-15.611,1.372-33.089-6.231-44.427-19.255c-4.094,1.845-8.368,3.082-12.709,3.644c-0.697,9.943-2.384,21.145-5.264,32.37
		c8.301-0.607,16.264,2.812,23.439,6.703c6.366,3.464,12.934,8.705,20.605,7.918C912.093,554.007,911.98,538.913,912.16,524.539z
		 M900.89,1124.335c2.542-2.317,3.284-5.669,3.779-9.088c-13.069,1.305-26.296,1.935-39.411,2.407
		c2.317,3.082,4.791,6.006,7.918,8.076C879.701,1130.116,894.817,1129.846,900.89,1124.335z M840.402,508.298
		c-1.552-0.337-3.104-0.742-4.611-1.26c-0.292,7.311-3.464,15.094-5.601,21.865c-2.429,7.626-5.421,15.274-10.775,21.347
		c-11.832,13.474-28.771,15.926-45.664,13.384c-35.519-5.309-63.322-32.685-99.336-34.957c-0.045,0-0.067,0-0.09,0
		c-3.442,2.182-7.513,3.689-11.652,4.431c1.057,3.217,2.002,6.658,2.744,10.213c39.748-14.509,72.815,31.92,107.816,44.269
		C816.491,602.82,832.597,541.478,840.402,508.298z M715.333,945.435c3.779,0.023,7.581,0.023,11.36,0.045
		c-12.507-27.736,14.869-92.723-10.865-113.867c-0.945,2.294-1.777,4.656-2.924,6.883c-1.372,2.677-16.534,10.662-20.065,5.039
		c-4.589-7.288-8.57-11.157-17.388-11.045c-6.973,0.09-13.812,1.665-20.74,2.159c-6.793,0.472-13.317-0.157-19.705-2.632
		c-8.795-3.374-14.172-5.804-23.799-4.229c-14.779,2.407-29.265-0.045-38.128-13.677c-6.838-10.527-5.016-23.192,0.99-33.629
		c14.644-25.441,40.063-30.66,65.752-37.341c0.27-1.372,0.9-2.699,1.935-3.847c5.174-5.691,14.711-10.797,17.231-18.513
		c2.564-7.806-3.757-15.769-8.076-21.662c-5.781-7.896,6.973-17.343,13.384-10.325c9.02,9.898,17.793,22.27,14.419,36.396
		c-0.09,0.382-0.225,0.765-0.337,1.147c4.319-3.644,7.828-7.963,9.763-13.092c5.646-14.891-10.213-28.636-20.493-36.756
		c-5.579-4.409-3.194-11.067,1.575-14.262c-0.675-5.916-1.71-11.765-4.341-16.848c-4.094-7.873-12.035-12.889-18.221-18.918
		c-9.695-9.448-15.746-22.81-12.462-35.519c-6.478-3.419-11.855-10.415-16.106-17.861c-3.869,6.973-9.2,12.867-16.916,14.891
		c-3.712,0.967-7.243,0.765-10.55-0.247c-2.002,8.3-0.135,16.646,4.814,24.632c6.299,10.145,16.016,14.104,24.789,21.437
		c4.971,4.139,0.652,12.012-5.039,12.17c-1.035,0.023-2.07-0.023-3.082-0.135c0.225,5.286,1.62,10.347,4.926,14.914
		c4.206,5.804,10.73,9.245,14.667,15.251c2.609,3.982-0.585,9.92-5.286,10.033c-0.877,1.147-2.115,2.137-3.779,2.789
		c-11.562,4.589-23.642,11.765-32.145,20.965c-6.906,7.491-12.08,16.061-20.133,22.472c-4.634,3.689-9.583,3.712-14.172,0
		c-27.938-22.562-56.394,3.644-65.302,31.92c-7.738,24.564-3.397,55.922,15.656,74.277c5.466,5.286,2.722,14.801-4.431,16.781
		c-4.994,1.395-6.096,1.08-5.579,5.489c0.45,3.802,4.611,8.345,6.928,11.09c5.534,6.523,13.564,10.662,18.108,17.838
		c0.967,1.552,1.215,3.554,0.877,5.489c4.049,0.427,8.368,0.54,10.91-1.057c5.331-3.374,3.914-14.442,5.871-19.93
		c2.047-5.804,11.675-8.84,14.711-1.912c7.356,16.803,0.157,38.488-19.165,41.93c-8.053,1.44-16.106-0.09-24.114-0.99
		c-4.949-0.54-20.29-3.442-24.092,1.012c-2.092,2.452,8.233,18.401,9.515,23.079c0.855,3.149,1.012,6.096,0.54,8.75
		c18.558-0.18,37.139-0.405,55.697-0.607c2.294-8.908,7.198-17.051,12.417-25.194c3.937-6.186,8.728-12.26,11.72-19.008
		c2.632-5.939,1.642-8.323-0.9-14.037c-4.994-11.135,6.973-19.908,16.354-12.597c13.992,10.91,8.255,30.975-0.247,43.235
		c-5.916,8.525-15.881,17.501-22.022,27.466c12.035-0.09,24.047-0.157,36.059-0.112c18.378,0.045,36.734,0.09,55.112,0.135
		c-2.992-9.02-3.487-19.863-3.284-29.873c0.247-12.574,1.98-27.713-3.442-39.456c-3.622-7.896-11.337-6.883-18.783-7.491
		c-7.513-0.585-14.891-2.294-19.998-8.143c-3.824-4.364-1.71-13.497,5.264-12.732c13.879,1.485,30.638-1.417,42.29,7.941
		c7.581,6.074,10.887,15.296,12.44,24.767c13.789,6.433,31.02-4.634,36.104,16.331c2.474,10.213,0.99,20.515,0,30.773
		C710.676,934.998,712.476,940.172,715.333,945.435z M702.511,440.837c16.286-4.409,23.259-15.319,22.135-32.1
		c-0.855-12.934-5.939-27.466-14.801-37.116c-9.74-10.617-24.182-16.084-25.936-32.055c-2.159-19.525,6.119-43.302,14.599-61.253
		c-2.339-1.282-4.409-2.947-6.096-4.926c-4.859,4.791-10.797,8.188-18.108,7.896c-7.558-0.292-13.452-3.082-17.906-7.401
		c5.691,8.368,8.48,18.85,9.335,31.47c1.485,22-3.577,38.218-24.789,47.194c-10.752,4.544-22.674,5.961-32.955,11.63
		c-9.403,5.151-13.204,11.45-15.386,19.66c0.54,0.337,1.08,0.72,1.62,1.102c14.981-13.767,34.034-24.407,54.234-27.421
		c15.589-2.339,36.576-0.9,46.654,13.002c13.587,18.715,6.613,49.398-9.043,67.236c5.331,0.63,10.482,1.777,15.184,3.554
		C701.656,441.129,702.038,440.95,702.511,440.837z M664.45,479.595c9.65,1.665,50.905,8.458,39.815-13.159
		c-8.705-16.983-42.717-11.225-57.474-8.121c-7.176,1.507-15.274-6.411-10.347-13.474c3.082-4.409,9.808-13.272,6.501-19.075
		c-3.329-5.849-14.779-4.117-20.043-3.419c-22.27,2.992-42.245,14.374-60.578,26.724c-8.548,5.759-19.165-7.986-11.045-14.307
		c0.54-0.427,1.192-0.855,1.912-1.327c-0.022-0.022-0.045-0.068-0.067-0.09c8.683-5.871,18.828-12.282,29.67-17.681
		c3.464-3.104,5.669-6.366,5.376-9.718c-0.202-2.632-6.433-18.131-42.132-15.206c-7.761,0.63-11.832-10.01-6.344-15.341
		c5.534-5.354,16.511-18.446,13.339-27.173c-3.892-10.73-20.043-2.857-29.715,2.294c-0.292,0.45-0.607,0.877-0.877,1.305
		c-6.478,9.515-22,0.562-15.521-9.065c4.184-6.231,22.944-27.871,9.403-31.425c-15.251-4.027-33.022,10.235-42.987,20.178
		c-4.476,4.476-14.037,2.947-15.229-4.004c-0.697-4.117-2.947-16.916-9.695-16.084c-6.164,0.765-4.746,12.147-4.072,15.904
		c1.26,6.973-4.027,12.709-11.202,11.202c-9.875-2.069-16.623-10.842-26.049-13.069c-6.321-1.485-14.576,5.151-11.675,11.652
		c2.294,5.174,10.19,8.435,14.914,10.617c7.198,3.307,5.039,14.959-2.182,16.646c-6.366,1.507-13.992,1.732-20.02,4.341
		c-7.198,3.104-3.014,10.258,0.135,16.174c6.951,13.024,21.415,15.476,33.629,21.73c8.66,4.409,3.734,16.354-4.589,16.961
		c-7.176,0.54-27.353,7.131-18.985,16.803c2.789,3.217,7.491,4.746,10.392,8.053c3.667,4.229,4.994,8.93,5.354,14.442
		c0.337,5.196-4.431,8.795-9.11,9.11c-6.928,0.472-39.298,4.971-35.361,15.071c4.072,10.393,23.484,10.1,32.01,9.988
		c11.36-0.135,22.652-1.642,34.012-1.935c6.928-0.18,10.752,7.603,7.648,13.317c-6.636,12.327-9.403,25.351,7.221,28.658
		c12.979,2.564,27.938-0.495,39.635-6.388c5.781-2.924,14.059,0.54,13.677,7.828c-0.292,5.646-1.237,13.429,5.241,15.161
		c6.366,1.687,15.746-3.397,21.167-6.074c11.945-5.939,23.777-13.519,34.057-22.337c1.8-2.834,4.386-5.219,7.963-6.973
		c9.493-4.656,19.615,7.086,11.607,15.049c-1.327,1.305-2.699,2.587-4.072,3.869c-2.722,6.366,3.442,21.482,6.681,26.634
		c0.72,1.147,9.11,8.435,9.763,8.435c7.558-0.292,11.765-17.051,13.294-22.045c2.564-8.3,13.047-7.356,15.949,0
		c2.429,6.164,11.09,29.108,19.593,25.711c5.286-2.092,4.319-39.343,2.677-43.707c-0.292-0.112-0.607-0.202-0.9-0.315
		c-10.91-4.499-6.074-22.45,4.926-17.906c3.937,1.62,12.844,1.327,13.294-3.037c0.495-4.724-8.728-13.654-11.022-17.861
		C649.918,485.646,656.644,478.223,664.45,479.595z M696.887,915.743c0.585-4.251,2.722-15.724-0.9-18.94
		c-1.507-1.305-6.208-0.09-7.941-0.068c-4.229,0.09-8.053-0.382-11.472-1.687c0.135,13.992-5.309,37.386,2.654,50.298
		c5.646,0,11.315,0.023,16.961,0.023C694.008,936.438,695.425,926.225,696.887,915.743z M666.115,437.193
		c11.81-12.26,27.668-38.286,16.151-55.584c-7.086-10.64-26.881-8.525-37.431-5.624c-15.296,4.207-27.511,13.969-38.983,24.474
		c-0.045,0.067-0.112,0.09-0.18,0.157c0.517,1.957,0.81,3.847,0.877,5.624c11.585-3.262,23.372-4.386,34.507-1.71
		c18.401,4.386,22.562,18.873,18.828,33.292c2.025-0.202,4.049-0.382,6.119-0.517C666.047,437.283,666.07,437.238,666.115,437.193z
		 M494.301,653.906c5.781-5.084,10.505-16.489,3.982-23.169c-7.446-7.626-18.446,3.217-23.709,8.233
		c-4.701,4.454-12.619,2.542-14.419-3.802c-1.53-5.466-2.429-11.517-8.638-10.595c-4.274,0.63-9.403,6.568-12.282,9.515
		c-8.975,9.155-15.139,21.01-24.587,29.603c-17.231,15.679-31.582,4.724-41.098-10.46c-0.787,7.198-2.362,14.172-5.646,20.29
		c0.022,0.023,0.022,0.023,0.022,0.023c4.251,5.039,7.558,11,11.9,15.859c3.059,3.442,3.104,2.227,9.56,0.562
		c11.63-3.037,23.124-4.296,32.19-12.574c11.27-10.28,29.603-33.629,47.396-28.141c9.2,2.834,13.789,14.014,12.732,22.967
		c-1.395,11.652-11.585,15.544-20.83,19.93c-14.756,6.973-18.356,21.55-14.846,36.756c3.644,15.679,13.339,21.437,27.511,23.867
		c0.585-1.462,1.125-2.947,1.777-4.364c4.274-9.403,10.1-18.581,17.366-26.274c-2.789-6.928-2.632-14.217-1.012-22.45
		c2.339-11.855,8.57-23.979,1.26-35.204C490.927,661.396,491.512,656.335,494.301,653.906z M412.106,1120.106
		c7.131-0.787,9.425-3.082,8.773-10.19c-0.09-1.035,0.022-1.935,0.225-2.789c-10.73-2.519-21.595-5.196-32.46-8.12
		c1.642,4.859,2.969,10.01,5.331,14.014C397.642,1119.229,405.267,1120.848,412.106,1120.106z M396.562,607.049
		c4.296-13.249-10.392-25.464-22.607-20.718c-3.374,1.305-8.345-0.855-9.875-4.027c-6.478-13.204-16.668-26.859-32.19-29.468
		c-13.519-2.294-28.141,7.648-29.513,21.572c-0.765,7.783-7.446,11.247-14.442,8.3c-21.842-9.268-62.512-22.495-70.948,11.067
		c-1.282,5.151-6.793,7.828-11.72,6.658c-23.867-5.669-52.93-8.345-76.099,1.867c-11.607,5.129-11.967,17.501-2.699,25.599
		c9.11,7.941,23.349,6.681,34.574,6.254c8.75-0.337,13.249,11.27,7.108,17.208c-5.511,5.331-3.127,14.127,2.114,18.76
		c5.781,5.084,14.756,5.781,22.022,5.646c17.456-0.36,34.057-7.378,47.329-18.558c9.088-7.626,20.313,15.296,22.067,16.286
		c4.072,2.294,8.39,4.296,12.889,5.624c12.057,3.577,24.519-9.47,27.691-21.707c2.159-8.301,18.873-4.004,20.155-3.104
		c5.624,3.959,9.898,8.818,14.869,13.497c5.579,5.241,9.313,5.804,14.104-1.665c7.536-11.787,5.196-30.12,6.006-43.437
		c0.36-5.916,7.491-11.922,13.249-7.603C379.466,621.738,393.008,618.049,396.562,607.049z"/>
	<path fill="#4A6078" d="M1067.508,402.686c16.444,12.125,19.098,31.447,1.687,44.067c-4.769,3.464-6.119,9.628-1.822,14.194
		c27.286,29.153-27.061,48.116-48.903,31.65c-5.489-4.139-13.902,1.462-13.609,7.806c0.27,6.141,0.832,15.544-5.916,18.603
		c-5.669,2.587-13.857-0.18-19.233-2.047c-13.317-4.611-29.265-13.249-37.273-25.284c-4.072-6.118-13.249-5.129-15.521,2.025
		c-8.008,25.171-38.983,12.889-49.376-3.914c-2.317-3.757-7.828-5.736-11.765-3.082c-11.54,7.806-26.656,7.761-35.901-3.802
		c-1.912-2.362-6.838-10.752-3.307-17.163c3.577-6.456,15.634-10.955,16.826-11.45c7.896-3.374,2.25-16.848-5.894-13.969
		c-6.456,2.294-12.327,5.736-17.028,10.033c-13.789,1.395-33.224-11.315-36.891-23.642c-5.016-16.961,18.76-34.552,33.899-27.128
		c6.568,3.239,14.531-0.652,14.644-8.413c0.382-23.462,21.617-33.449,42.515-32.775c14.104,0.45,39.815,3.082,43.909,19.773
		c1.665,6.703,10.662,8.975,15.409,4.072c11.945-12.372,25.081-17.703,40.063-7.513c8.66,5.894,22.225,16.781,23.552,28.073
		c0.832,6.928,10.01,13.317,15.679,6.478C1027.377,392.316,1049.512,389.437,1067.508,402.686z M1030.324,453.142
		c11.247-6.838,19.255-22.09,11.292-34.327c-4.094-6.276-13.542-3.712-13.924,3.779c-0.382,7.626-0.967,12.462-8.39,16.219
		c-5.939,3.014-13.407,3.374-19.053-0.36c-6.051-3.982-12.26,1.485-12.979,7.468c-2.564,20.852-31.402,5.826-38.151-4.566
		c-2.722-4.206-7.716-5.444-12.17-3.194c-9.965,5.039-28.726,18.086-40.175,14.352c-3.779-1.237-6.838-4.319-6.861-8.525
		c-0.022-5.534,4.724-7.041,9.11-9.02c7.468-3.329,2.969-13.812-3.847-14.217c-21.437-1.282-29.04,25.216-17.118,40.063
		c6.726,8.368,17.231,11.27,27.601,9.583c12.012-1.957,21.482-10.258,32.46-14.307c17.456,19.525,53.222,26.476,63.66,1.71
		C1011.316,460.137,1021.799,458.315,1030.324,453.142z"/>
	<path d="M1041.616,418.815c7.963,12.237-0.045,27.488-11.292,34.327c-8.525,5.174-19.008,6.996-28.546,4.656
		c-10.438,24.767-46.204,17.816-63.66-1.71c-10.977,4.049-20.448,12.35-32.46,14.307c-10.37,1.687-20.875-1.215-27.601-9.583
		c-11.922-14.846-4.319-41.345,17.118-40.063c6.816,0.405,11.315,10.887,3.847,14.217c-4.386,1.98-9.133,3.487-9.11,9.02
		c0.023,4.206,3.082,7.288,6.861,8.525c11.45,3.734,30.21-9.313,40.175-14.352c4.454-2.249,9.448-1.012,12.17,3.194
		c6.748,10.392,35.586,25.419,38.151,4.566c0.72-5.984,6.928-11.45,12.979-7.468c5.646,3.734,13.114,3.374,19.053,0.36
		c7.423-3.757,8.008-8.593,8.39-16.219C1028.075,415.103,1037.522,412.539,1041.616,418.815z"/>
	<path fill="#A9BDD1" d="M1032.236,998.838c-1.8,8.345-5.849,16.668-9.65,23.439c-9.538,17.028-22.382,33.089-38.511,44.314
		c-44.877,31.2-106.602,25.689-158.474,29.355c-121.943,8.638-245.281,22-366.662,0.157c-46.429-8.345-95.152-20.785-137.959-41.143
		c-19.12-9.088-37.813-20.425-51.94-36.464c-4.341-4.904-9.965-13.587-13.272-22.585c10.033,5.219,24.294,7.086,31.785,8.143
		c32.302,4.521,65.212,5.106,97.784,5.151c84.692,0.09,169.362-2.879,254.031-3.532c35.316-0.27,70.498,1.237,105.769,1.755
		c33.539,0.472,67.574-2.339,100.798,3.667c12.057,2.204,17.411-15.859,5.129-18.625c-27.016-6.074-54.347-6.501-81.97-6.838
		c-29.265-0.382-58.531-1.575-87.819-1.845c-61.748-0.54-123.45,2.564-185.175,3.532c-58.351,0.9-117.039,3.532-175.368,0.607
		c-14.464-0.72-29.108-1.597-43.325-4.521c-4.949-1.035-10.348-2.092-15.004-4.139c-0.18-0.067-2.092-1.282-2.114-1.282
		c-0.023,0-0.023,0-0.023-0.023c-0.247-2.924-2.002-5.016-4.274-6.051c1.732-2.452,4.296-4.476,7.873-5.871
		c17.343-6.816,39.028-3.712,57.159-3.037c27.083,1.012,54.279,1.485,81.385,2.182c50.388,1.282,182.948,0.652,194.398,0.697
		c72.702,0.27,145.405,1.305,218.107,1.8c70.79,0.495,141.221,2.654,211.921,5.511c1.8,1.957,3.172,4.027,4.161,6.209
		c-15.071,7.626-32.37,7.896-49.263,8.84c-28.433,1.575-56.304,1.08-84.782,0.832c-11.382-0.09-11.405,17.658,0,17.703
		c31.11,0.135,61.59,0.517,92.633-1.62C1000.114,1004.439,1018.74,1004.191,1032.236,998.838z M716.592,1057.301
		c8.076-0.315,8.098-12.237,0-12.552c-109.234-4.544-219.142-4.881-328.443-3.194c-8.48,0.113-8.48,13.024,0,13.159
		C497.45,1056.469,607.336,1061.755,716.592,1057.301z M668.139,1097.926c8.211-0.855,8.143-11.787,0-12.732
		c-27.308-3.149-55.494-4.431-82.96-5.556c-26.881-1.102-53.942-0.337-80.193,6.073c-7.693,1.867-4.341,13.069,3.239,11.72
		c26.724-4.769,54.009-3.959,81.003-2.339C615.052,1096.644,642.338,1100.67,668.139,1097.926z"/>
	<path fill="#EBBE6C" d="M946.509,519.591c-3.037,22.36,2.024,53.222-23.642,62.782c-28.636,10.685-55.742-7.761-83.905-11.72
		c2.115-4.184,4.027-8.57,5.714-13.047c1.08,0.54,2.339,0.922,3.824,1.057c11.495,0.967,19.008,7.288,29.288,11.652
		c10.078,4.274,20.245,3.869,30.165-0.675c10.033-4.566,17.816-11.99,19.413-23.214c1.215-8.503-1.35-16.893-2.542-25.306
		c4.544-2.204,8.638-5.489,12.012-9.965C939.806,514.147,943.045,516.959,946.509,519.591z"/>
	<path fill="#4A6078" d="M903.14,241.58c23.034,6.996,29.85,33.517,9.808,48.341c-8.166,6.029-18.783,9.403-28.883,9.313
		c-11.742-0.09-17.703-5.939-26.791-12.26c-6.298-4.364-14.194-6.861-21.482-3.127c-6.703,3.442-10.617,11.225-16.151,16.084
		c-19.48,17.006-40.535-4.207-54.572-16.758c-3.464-3.104-9.02-3.599-12.439,0c-10.415,11.022-28.568,21.392-43.145,12.125
		c0.832-4.521,1.327-9.043,1.237-13.654c1.08,0.045,2.159,0.045,3.239-0.045c12.867-1.08,22.472-11,29.535-20.965
		c6.613-9.335,16.241-23.124,14.644-34.844c-0.607-4.454-6.613-6.029-9.988-4.049c-6.568,3.824-8.548,11.022-12.012,17.478
		c-3.937,7.378-8.346,15.319-14.711,20.897c-4.094,3.622-14.104,8.525-17.568,1.237c-0.45-0.922-0.652-1.935-0.675-2.992
		c2.564-4.634,4.814-9.425,7.221-14.127c1.035-2.002,2.272-3.982,3.487-6.006c0.202-0.225,0.405-0.472,0.585-0.675
		c0.72-0.787,1.147-1.71,1.35-2.654c1.327-2.384,2.474-4.836,3.059-7.356c1.147-4.926-3.329-10.482-8.66-8.683
		c-17.321,5.916-17.726,32.01-29.85,43.482c-7.941,7.513-16.376-1.98-19.143-9.875c-3.644-10.437-2.294-22.607,0.405-33.112
		c0.517-2.025-0.157-3.779-1.372-4.994c-0.697-2.339-2.812-3.892-5.601-4.251c-15.724-2.092-13.722,25.801-13.362,34.709
		c0.135,3.284,1.732,11.247,0.855,15.926c-3.532-2.092-7.491-3.914-12.012-5.444c-11.315-3.869-23.012-7.041-32.955-13.969
		c-11.495-7.986-15.701-19.728-18.131-33.022c-1.575-8.683-13.294-5.466-14.172,1.912c-3.014,25.756,14.374,44.202,36.621,53.987
		c11.202,4.926,24.609,6.861,35.002,13.272c10.505,6.478,12.687,17.883,13.564,29.378c0.045,0.63,0.09,1.282,0.135,1.935
		c-6.658,0.562-13.362-0.225-18.333-5.151c-6.164-6.074-4.072-14.329-7.176-21.595c-2.204-5.219-9.268-3.689-11.855,0
		c-1.462,2.047-2.294,4.409-2.722,6.928c-8.121,5.061-20.335,4.859-28.703,1.417c-10.145-4.161-8.84-14.576-8.885-24.047
		c-0.045-5.084-4.949-8.773-9.853-7.491c-13.902,3.644-31.672,5.061-44.629-2.407c-17.906-10.303-7.558-25.711,1.327-38.578
		c4.251-6.119-2.722-13.339-9.11-11.855c-12.754,3.014-10.572-20.942-8.885-27.691c4.521-18.018,17.703-24.924,34.507-15.926
		c5.489,2.947,12.395-0.72,12.44-7.153c0.135-18.828,5.804-33.022,20.358-45.327c6.546-5.534,15.454-12.822,24.654-12.237
		c9.515,0.585,16.938,9.2,22.922,15.724c4.701,5.151,14.824,1.305,14.284-5.916c-1.102-14.397,11.067-26.476,23.552-31.807
		c15.004-6.411,25.914-1.057,28.546,15.184c1.125,7.018,9.74,7.153,14.104,3.734c16.938-13.227,41.84-39.366,64.829-22.63
		c7.581,5.534,33.494,33.18,19.345,41.772c-7.468,4.544-4.004,15.409,4.296,15.904c17.186,1.012,36.239,0.855,51.738,9.358
		c5.579,3.037,24.249,15.454,14.891,21.887c-5.669,3.914-5.646,13.969,2.047,15.701c17.546,3.937,38.308,9.403,49.713,24.564
		c4.026,5.399,13.924,23.124,1.845,23.439C895.694,224.844,893.737,238.723,903.14,241.58z M846.453,211.82
		c6.951-7.491,7.311-22.72-3.037-27.578c-3.937-1.845-10.572-0.742-11.337,4.611c-0.585,4.094,1.35,9.2-0.27,10.887
		c-3.104,3.239-12.012,2.542-15.836,2.249c-12.35-0.9-28.343-6.276-30.368-20.2c-1.012-7.063-10.685-8.211-15.094-3.982
		c-15.364,14.756-51.063,3.959-57.519-15.566c-1.822-5.511-9.605-8.728-13.924-3.667c-6.973,8.121-19.48,17.456-30.795,17.096
		c-3.982-0.135-9.2-2.587-9.313-7.378c-0.135-5.106,4.319-4.746,8.278-5.579c6.928-1.485,5.961-11.135,0-13.092
		c-21.055-6.928-30.615,20.942-17.636,34.619c14.352,15.116,37.971,6.096,53.11-6.119c14.621,20.65,46.856,30.368,69.823,19.705
		c9.088,15.409,28.996,22.765,47.126,22.922C828.975,220.84,839.818,218.973,846.453,211.82z"/>
	<path fill="#A9BDD1" d="M904.669,1115.247c-0.495,3.419-1.237,6.771-3.779,9.088c-6.074,5.511-21.19,5.781-27.713,1.395
		c-3.127-2.069-5.601-4.994-7.918-8.076C878.373,1117.182,891.6,1116.552,904.669,1115.247z"/>
	<path d="M843.417,184.241c10.348,4.859,9.988,20.088,3.037,27.578c-6.636,7.153-17.478,9.02-26.791,8.93
		c-18.131-0.157-38.038-7.513-47.126-22.922c-22.967,10.662-55.202,0.945-69.823-19.705c-15.139,12.215-38.758,21.235-53.11,6.119
		c-12.979-13.677-3.419-41.547,17.636-34.619c5.961,1.957,6.928,11.607,0,13.092c-3.959,0.832-8.413,0.472-8.278,5.579
		c0.112,4.791,5.331,7.243,9.313,7.378c11.315,0.36,23.822-8.975,30.795-17.096c4.319-5.061,12.102-1.845,13.924,3.667
		c6.456,19.525,42.155,30.323,57.519,15.566c4.409-4.229,14.082-3.082,15.094,3.982c2.024,13.924,18.018,19.3,30.368,20.2
		c3.824,0.292,12.732,0.99,15.836-2.249c1.62-1.687-0.315-6.793,0.27-10.887C832.844,183.499,839.48,182.397,843.417,184.241z"/>
	<path fill="#EBBE6C" d="M835.791,507.039c1.507,0.517,3.059,0.922,4.611,1.26c-7.806,33.18-23.912,94.522-67.169,79.293
		c-35.002-12.35-68.069-58.778-107.816-44.269c-0.742-3.554-1.687-6.996-2.744-10.213c4.139-0.742,8.211-2.249,11.652-4.431
		c0.023,0,0.045,0,0.09,0c36.014,2.272,63.817,29.648,99.336,34.957c16.893,2.542,33.832,0.09,45.664-13.384
		c5.354-6.074,8.345-13.722,10.775-21.347C832.327,522.132,835.499,514.349,835.791,507.039z"/>
	<path fill="#EBBE6C" d="M726.692,945.48c-3.779-0.022-7.581-0.022-11.36-0.045c-2.857-5.264-4.656-10.437-3.937-18.018
		c0.99-10.258,2.474-20.56,0-30.773c-5.084-20.965-22.315-9.898-36.104-16.331c-1.552-9.47-4.859-18.693-12.44-24.767
		c-11.652-9.358-28.411-6.456-42.29-7.941c-6.973-0.765-9.088,8.368-5.264,12.732c5.106,5.849,12.484,7.558,19.998,8.143
		c7.446,0.607,15.161-0.405,18.783,7.491c5.421,11.742,3.689,26.881,3.442,39.456c-0.202,10.01,0.292,20.852,3.284,29.873
		c-18.378-0.045-36.734-0.09-55.112-0.135c-12.012-0.045-24.024,0.022-36.059,0.112c6.141-9.965,16.106-18.94,22.022-27.466
		c8.503-12.26,14.239-32.325,0.247-43.235c-9.38-7.311-21.347,1.462-16.354,12.597c2.542,5.714,3.532,8.098,0.9,14.037
		c-2.992,6.748-7.783,12.822-11.72,19.008c-5.219,8.143-10.123,16.286-12.417,25.194c-18.558,0.202-37.139,0.427-55.697,0.607
		c0.472-2.654,0.315-5.601-0.54-8.75c-1.282-4.679-11.607-20.628-9.515-23.079c3.802-4.454,19.143-1.552,24.092-1.012
		c8.008,0.9,16.061,2.429,24.114,0.99c19.323-3.442,26.521-25.126,19.165-41.93c-3.037-6.928-12.664-3.892-14.711,1.912
		c-1.957,5.489-0.54,16.556-5.871,19.93c-2.542,1.597-6.861,1.485-10.91,1.057c0.337-1.935,0.09-3.937-0.877-5.489
		c-4.544-7.176-12.574-11.315-18.108-17.838c-2.317-2.744-6.478-7.288-6.928-11.09c-0.517-4.409,0.585-4.094,5.579-5.489
		c7.153-1.979,9.898-11.495,4.431-16.781c-19.053-18.356-23.394-49.713-15.656-74.277c8.908-28.276,37.363-54.482,65.302-31.92
		c4.589,3.712,9.538,3.689,14.172,0c8.053-6.411,13.227-14.981,20.133-22.472c8.503-9.2,20.583-16.376,32.145-20.965
		c1.665-0.652,2.902-1.642,3.779-2.789c4.701-0.112,7.896-6.051,5.286-10.033c-3.937-6.006-10.46-9.448-14.667-15.251
		c-3.307-4.566-4.701-9.628-4.926-14.914c1.012,0.112,2.047,0.157,3.082,0.135c5.691-0.157,10.01-8.031,5.039-12.17
		c-8.773-7.333-18.491-11.292-24.789-21.437c-4.949-7.986-6.816-16.331-4.814-24.632c3.307,1.012,6.838,1.215,10.55,0.247
		c7.716-2.024,13.047-7.918,16.916-14.891c4.251,7.446,9.628,14.442,16.106,17.861c-3.284,12.709,2.767,26.071,12.462,35.519
		c6.186,6.029,14.127,11.045,18.221,18.918c2.632,5.084,3.667,10.932,4.341,16.848c-4.769,3.194-7.153,9.853-1.575,14.262
		c10.28,8.121,26.139,21.865,20.493,36.756c-1.935,5.129-5.444,9.448-9.763,13.092c0.112-0.382,0.247-0.765,0.337-1.147
		c3.374-14.127-5.399-26.499-14.419-36.396c-6.411-7.018-19.165,2.429-13.384,10.325c4.319,5.894,10.64,13.857,8.076,21.662
		c-2.519,7.716-12.057,12.822-17.231,18.513c-1.035,1.147-1.665,2.474-1.935,3.847c-25.689,6.681-51.108,11.9-65.752,37.341
		c-6.006,10.438-7.828,23.102-0.99,33.629c8.863,13.632,23.349,16.084,38.128,13.677c9.628-1.575,15.004,0.855,23.799,4.229
		c6.388,2.474,12.912,3.104,19.705,2.632c6.928-0.495,13.767-2.07,20.74-2.159c8.818-0.112,12.799,3.757,17.388,11.045
		c3.532,5.624,18.693-2.362,20.065-5.039c1.147-2.227,1.98-4.589,2.924-6.883C741.561,852.758,714.185,917.745,726.692,945.48z
		 M538.3,839.463c6.501-2.587,8.346-13.339,0-15.139c-19.683-4.229-17.456-35.137-13.654-50.523
		c1.845-7.468-7.941-11.27-12.102-5.106c-8.66,12.844-9.11,32.055-5.489,46.609C510.43,828.823,522.127,845.874,538.3,839.463z"/>
	<path fill="#EBBE6C" d="M724.645,408.737c1.125,16.781-5.849,27.691-22.135,32.1c-0.472,0.112-0.855,0.292-1.26,0.472
		c-4.701-1.777-9.853-2.924-15.184-3.554c15.656-17.838,22.63-48.521,9.043-67.236c-10.078-13.902-31.065-15.341-46.654-13.002
		c-20.2,3.014-39.253,13.654-54.234,27.421c-0.54-0.382-1.08-0.765-1.62-1.102c2.182-8.211,5.984-14.509,15.386-19.66
		c10.28-5.669,22.202-7.086,32.955-11.63c21.212-8.975,26.274-25.194,24.789-47.194c-0.855-12.619-3.644-23.102-9.335-31.47
		c4.454,4.319,10.347,7.108,17.906,7.401c7.311,0.292,13.249-3.104,18.108-7.896c1.687,1.98,3.757,3.644,6.096,4.926
		c-8.48,17.951-16.758,41.727-14.599,61.253c1.755,15.971,16.196,21.437,25.936,32.055
		C718.707,381.271,723.791,395.803,724.645,408.737z"/>
	<path d="M716.592,1044.749c8.098,0.315,8.076,12.237,0,12.552c-109.256,4.454-219.142-0.832-328.443-2.587
		c-8.48-0.135-8.48-13.047,0-13.159C497.45,1039.868,607.359,1040.205,716.592,1044.749z"/>
	<path fill="#4A6078" d="M704.265,466.436c11.09,21.617-30.165,14.824-39.815,13.159c-7.806-1.372-14.531,6.051-10.438,13.542
		c2.294,4.206,11.517,13.137,11.022,17.861c-0.45,4.364-9.358,4.656-13.294,3.037c-11-4.544-15.836,13.407-4.926,17.906
		c0.292,0.112,0.607,0.202,0.9,0.315c1.642,4.364,2.609,41.615-2.677,43.707c-8.503,3.397-17.163-19.548-19.593-25.711
		c-2.902-7.356-13.384-8.3-15.949,0c-1.53,4.994-5.736,21.752-13.294,22.045c-0.652,0-9.043-7.288-9.763-8.435
		c-3.239-5.151-9.403-20.268-6.681-26.634c1.372-1.282,2.744-2.564,4.072-3.869c8.008-7.963-2.115-19.705-11.607-15.049
		c-3.577,1.755-6.164,4.139-7.963,6.973c-10.28,8.818-22.112,16.399-34.057,22.337c-5.421,2.677-14.801,7.761-21.167,6.074
		c-6.478-1.732-5.534-9.515-5.241-15.161c0.382-7.288-7.896-10.752-13.677-7.828c-11.697,5.894-26.656,8.953-39.635,6.388
		c-16.623-3.307-13.857-16.331-7.221-28.658c3.104-5.714-0.72-13.497-7.648-13.317c-11.36,0.292-22.652,1.8-34.012,1.935
		c-8.525,0.112-27.938,0.405-32.01-9.988c-3.937-10.1,28.433-14.599,35.361-15.071c4.679-0.315,9.448-3.914,9.11-9.11
		c-0.36-5.511-1.687-10.213-5.354-14.442c-2.902-3.307-7.603-4.836-10.392-8.053c-8.368-9.673,11.81-16.264,18.985-16.803
		c8.323-0.607,13.249-12.552,4.589-16.961c-12.215-6.254-26.679-8.705-33.629-21.73c-3.149-5.916-7.333-13.069-0.135-16.174
		c6.029-2.609,13.654-2.834,20.02-4.341c7.221-1.687,9.38-13.339,2.182-16.646c-4.724-2.182-12.619-5.444-14.914-10.617
		c-2.902-6.501,5.354-13.137,11.675-11.652c9.425,2.227,16.174,11,26.049,13.069c7.176,1.507,12.462-4.229,11.202-11.202
		c-0.675-3.757-2.092-15.139,4.072-15.904c6.748-0.832,8.998,11.967,9.695,16.084c1.192,6.951,10.752,8.48,15.229,4.004
		c9.965-9.943,27.736-24.204,42.987-20.178c13.542,3.554-5.219,25.194-9.403,31.425c-6.478,9.628,9.043,18.581,15.521,9.065
		c0.27-0.427,0.585-0.855,0.877-1.305c9.673-5.151,25.824-13.024,29.715-2.294c3.172,8.728-7.806,21.82-13.339,27.173
		c-5.489,5.331-1.417,15.971,6.344,15.341c35.699-2.924,41.93,12.574,42.132,15.206c0.292,3.352-1.912,6.613-5.376,9.718
		c-10.842,5.399-20.987,11.81-29.67,17.681c0.022,0.022,0.045,0.068,0.067,0.09c-0.72,0.472-1.372,0.9-1.912,1.327
		c-8.121,6.321,2.497,20.065,11.045,14.307c18.333-12.35,38.308-23.732,60.578-26.724c5.264-0.697,16.714-2.429,20.043,3.419
		c3.307,5.804-3.419,14.666-6.501,19.075c-4.926,7.063,3.172,14.981,10.347,13.474C661.548,455.211,695.56,449.452,704.265,466.436z
		 M572.964,502.337c4.319-4.544,0.022-12.102-6.119-10.505c-10.572,2.744-21.955,4.386-32.887,4.589
		c-6.951,0.112-23.799,1.327-18.153-9.313c3.082-5.804-0.72-13.159-7.536-13.159c-7.851-0.022-23.507,6.996-30.12,2.542
		c-11.742-7.918,0.27-27.826,12.237-26.229c9.29,0.697,11.54-14.801,2.227-16.421c-1.642-0.292-3.262-0.427-4.836-0.45
		c-10.123-0.675-26.814-3.824-19.75-16.736c4.949-9.043,16.556-13.497,25.441-7.806c6.074,3.892,13.542-5.421,7.828-10.123
		c-16.016-13.204-38.668-6.051-47.666,11.99c-7.851,15.769-0.202,26.409,11.675,32.685c-7.243,7.828-10.842,19.233-8.031,30.593
		c2.429,9.83,8.998,18.513,19.255,20.65c6.883,1.44,13.632-0.27,20.38-1.71C498.597,519.546,556.341,519.748,572.964,502.337z"/>
	<path d="M668.139,1085.194c8.143,0.945,8.211,11.877,0,12.732c-25.801,2.744-53.087-1.282-78.911-2.834
		c-26.993-1.62-54.279-2.429-81.003,2.339c-7.581,1.35-10.932-9.853-3.239-11.72c26.251-6.411,53.312-7.176,80.193-6.073
		C612.645,1080.763,640.831,1082.045,668.139,1085.194z"/>
	<path d="M566.846,491.832c6.141-1.597,10.437,5.961,6.119,10.505c-16.624,17.411-74.367,17.208-76.054-9.403
		c-6.748,1.44-13.497,3.149-20.38,1.71c-10.258-2.137-16.826-10.82-19.255-20.65c-2.812-11.36,0.787-22.764,8.031-30.593
		c-11.877-6.276-19.525-16.916-11.675-32.685c8.998-18.041,31.65-25.194,47.666-11.99c5.714,4.701-1.755,14.014-7.828,10.123
		c-8.885-5.691-20.493-1.237-25.441,7.806c-7.063,12.912,9.628,16.061,19.75,16.736c1.575,0.023,3.194,0.157,4.836,0.45
		c9.313,1.62,7.063,17.118-2.227,16.421c-11.967-1.597-23.979,18.311-12.237,26.229c6.613,4.454,22.27-2.564,30.12-2.542
		c6.816,0,10.617,7.356,7.536,13.159c-5.646,10.64,11.202,9.425,18.153,9.313C544.891,496.219,556.273,494.577,566.846,491.832z"/>
	<path d="M538.3,824.325c8.346,1.8,6.501,12.552,0,15.139c-16.174,6.411-27.871-10.64-31.245-24.159
		c-3.622-14.554-3.172-33.764,5.489-46.609c4.161-6.164,13.947-2.362,12.102,5.106C520.845,789.188,518.618,820.096,538.3,824.325z"
		/>
	<path fill="#EBBE6C" d="M498.282,630.736c6.523,6.681,1.8,18.086-3.982,23.169c-2.789,2.429-3.374,7.491-1.372,10.572
		c7.311,11.225,1.08,23.349-1.26,35.204c-1.62,8.233-1.777,15.521,1.012,22.45c-7.266,7.693-13.092,16.871-17.366,26.274
		c-0.652,1.417-1.192,2.902-1.777,4.364c-14.172-2.429-23.867-8.188-27.511-23.867c-3.509-15.206,0.09-29.783,14.846-36.756
		c9.245-4.386,19.435-8.278,20.83-19.93c1.057-8.953-3.532-20.133-12.732-22.967c-17.793-5.489-36.126,17.861-47.396,28.141
		c-9.065,8.278-20.56,9.538-32.19,12.574c-6.456,1.665-6.501,2.879-9.56-0.562c-4.341-4.859-7.648-10.82-11.9-15.859
		c0,0,0,0-0.022-0.023c3.284-6.119,4.859-13.092,5.646-20.29c9.515,15.184,23.867,26.139,41.098,10.46
		c9.448-8.593,15.611-20.448,24.587-29.603c2.879-2.947,8.008-8.885,12.282-9.515c6.208-0.922,7.108,5.129,8.638,10.595
		c1.8,6.344,9.718,8.256,14.419,3.802C479.837,633.953,490.837,623.111,498.282,630.736z"/>
	<path fill="#A9BDD1" d="M420.879,1109.916c0.652,7.108-1.642,9.403-8.773,10.19c-6.838,0.742-14.464-0.877-18.131-7.086
		c-2.362-4.004-3.689-9.155-5.331-14.014c10.865,2.924,21.73,5.601,32.46,8.12C420.901,1107.981,420.789,1108.881,420.879,1109.916z
		"/>
	<path fill="#4A6078" d="M373.955,586.332c12.215-4.746,26.904,7.468,22.607,20.718c-3.554,11-17.096,14.689-25.914,8.053
		c-5.759-4.319-12.889,1.687-13.249,7.603c-0.81,13.317,1.53,31.65-6.006,43.437c-4.791,7.468-8.525,6.906-14.104,1.665
		c-4.971-4.679-9.245-9.538-14.869-13.497c-1.282-0.9-17.996-5.196-20.155,3.104c-3.172,12.237-15.634,25.284-27.691,21.707
		c-4.499-1.327-8.818-3.329-12.889-5.624c-1.755-0.99-12.979-23.912-22.067-16.286c-13.272,11.18-29.873,18.198-47.329,18.558
		c-7.266,0.135-16.241-0.562-22.022-5.646c-5.241-4.634-7.626-13.429-2.114-18.76c6.141-5.939,1.642-17.546-7.108-17.208
		c-11.225,0.427-25.464,1.687-34.574-6.254c-9.268-8.098-8.908-20.47,2.699-25.599c23.169-10.213,52.232-7.536,76.099-1.867
		c4.926,1.17,10.437-1.507,11.72-6.658c8.435-33.562,49.106-20.335,70.948-11.067c6.996,2.947,13.677-0.517,14.442-8.3
		c1.372-13.924,15.994-23.867,29.513-21.572c15.521,2.609,25.711,16.264,32.19,29.468
		C365.609,585.477,370.581,587.637,373.955,586.332z M280.22,640.184c12.597-3.959,31.312-19.323,27.803-34.147
		c-1.327-5.579-8.143-6.546-11.99-3.172c-6.546,5.736-7.986,14.397-16.196,19.255c-8.705,5.129-16.219,3.217-19.863-6.591
		c-1.845-4.904-9.29-8.728-13.317-3.509c-6.141,7.918-12.102,16.646-20.133,22.787c-4.476,3.419-10.213,6.006-15.769,3.082
		c-7.063-3.712-4.206-9.65-1.305-15.274c2.609-5.016-2.992-12.147-8.368-8.368c-16.151,11.337-10.37,33.539,7.828,38.916
		c17.906,5.286,31.492-8.233,42.29-21.437C257.995,640.027,268.073,643.986,280.22,640.184z"/>
	<path d="M308.023,606.037c3.509,14.824-15.206,30.188-27.803,34.147c-12.147,3.802-22.225-0.157-29.018-8.458
		c-10.797,13.204-24.384,26.724-42.29,21.437c-18.198-5.376-23.979-27.578-7.828-38.916c5.376-3.779,10.977,3.352,8.368,8.368
		c-2.902,5.624-5.759,11.562,1.305,15.274c5.556,2.924,11.292,0.337,15.769-3.082c8.031-6.141,13.992-14.869,20.133-22.787
		c4.027-5.219,11.472-1.395,13.317,3.509c3.644,9.808,11.157,11.72,19.863,6.591c8.211-4.859,9.65-13.519,16.196-19.255
		C299.88,599.491,306.696,600.459,308.023,606.037z"/>
</g>
</svg>
